<?xml version="1.0" encoding="UTF-8" standalone="no"?>
<!DOCTYPE svg PUBLIC "-//W3C//DTD SVG 1.1//EN" "http://www.w3.org/Graphics/SVG/1.1/DTD/svg11.dtd">
<svg xmlns="http://www.w3.org/2000/svg" version="1.1" viewBox="0 0 512 512">
<path fill="#fff" d="
  M 351.81 0.00
  Q 355.44 0.00 359.06 0.00
  Q 376.71 1.34 390.19 9.56
  Q 416.42 25.56 422.36 55.10
  Q 424.36 65.05 423.40 74.98
  Q 420.79 101.88 400.10 120.19
  C 399.74 120.50 399.72 121.05 400.04 121.39
  Q 407.19 128.99 413.12 136.73
  C 413.45 137.16 413.98 137.37 414.52 137.29
  Q 437.25 133.79 460.00 134.85
  Q 474.23 135.51 485.00 139.25
  Q 494.50 142.54 501.06 148.44
  Q 510.76 157.14 512.00 170.81
  Q 512.00 172.94 512.00 175.06
  Q 510.67 185.55 505.94 193.44
  Q 499.29 204.51 488.26 214.50
  Q 471.87 229.34 453.17 241.20
  C 452.89 241.38 452.73 241.69 452.75 242.02
  Q 456.64 302.70 426.63 355.10
  Q 423.14 361.20 417.33 359.32
  Q 414.52 358.41 413.10 356.04
  Q 411.46 353.30 412.32 350.33
  Q 412.40 350.03 415.81 343.73
  Q 438.69 301.45 438.24 251.72
  C 438.24 251.26 437.73 250.97 437.33 251.21
  Q 405.93 269.60 373.41 284.88
  Q 283.10 327.33 187.19 354.94
  Q 183.34 356.04 180.52 354.12
  Q 178.01 352.41 177.35 348.97
  Q 176.53 344.64 179.88 342.13
  Q 181.42 340.97 186.02 339.64
  Q 276.98 313.32 362.90 273.50
  Q 404.50 254.22 443.27 229.74
  Q 462.12 217.84 478.71 202.95
  Q 482.37 199.66 487.44 193.69
  Q 491.52 188.88 494.05 183.58
  Q 497.00 177.41 496.83 172.04
  Q 496.51 162.46 487.33 156.92
  Q 481.61 153.47 475.69 152.06
  Q 465.16 149.56 453.50 149.45
  Q 439.32 149.31 424.15 151.13
  C 423.66 151.19 423.40 151.74 423.65 152.18
  L 430.79 164.66
  C 431.30 165.53 432.21 166.03 433.13 165.94
  Q 452.66 163.97 470.24 166.29
  Q 475.57 167.00 476.94 167.81
  Q 481.33 170.42 481.07 174.68
  Q 480.91 177.37 478.14 181.17
  Q 473.92 186.98 468.06 192.31
  Q 459.04 200.53 451.17 206.16
  Q 432.37 219.59 412.27 230.99
  Q 374.69 252.33 335.11 269.68
  Q 277.08 295.11 216.78 314.48
  Q 205.09 318.24 197.71 320.51
  Q 151.34 334.84 103.48 343.12
  Q 87.20 345.93 65.25 347.25
  Q 51.37 348.08 39.26 345.46
  Q 35.33 344.61 33.58 343.21
  Q 30.71 340.92 31.00 337.10
  Q 31.17 334.76 33.20 331.99
  Q 35.13 329.36 36.81 327.56
  Q 48.83 314.67 63.57 304.17
  C 64.08 303.80 64.33 303.16 64.20 302.53
  L 61.30 288.00
  C 61.23 287.68 60.87 287.53 60.61 287.70
  Q 44.26 298.50 30.64 311.65
  Q 24.80 317.30 20.33 324.08
  Q 16.14 330.46 15.50 335.00
  Q 13.27 350.90 27.06 356.94
  Q 38.97 362.16 52.75 362.25
  Q 77.39 362.42 100.02 358.90
  Q 125.33 354.96 150.24 348.96
  Q 155.63 347.66 158.55 350.89
  Q 161.14 353.76 160.40 357.76
  Q 159.57 362.24 154.44 363.44
  Q 135.09 367.94 116.40 371.41
  Q 115.17 371.64 115.99 372.58
  Q 155.92 418.82 213.30 433.03
  Q 222.99 435.43 232.95 436.71
  Q 276.95 442.37 317.19 427.69
  Q 363.24 410.88 393.94 375.19
  Q 397.13 371.47 400.96 371.65
  Q 404.72 371.83 406.89 375.18
  Q 408.82 378.15 407.43 381.57
  Q 406.71 383.35 403.94 386.45
  Q 362.58 432.66 302.75 447.56
  Q 293.05 449.97 283.13 451.34
  Q 227.94 458.93 178.06 437.19
  Q 130.57 416.49 98.65 374.90
  C 98.34 374.49 97.84 374.28 97.33 374.35
  Q 79.32 376.78 62.26 377.43
  Q 45.33 378.08 29.05 373.58
  Q 23.15 371.94 17.83 368.91
  Q 1.95 359.83 0.00 341.44
  Q 0.00 339.31 0.00 337.19
  Q 1.33 325.36 8.02 315.54
  Q 14.55 305.95 23.11 298.12
  Q 39.36 283.26 58.45 271.11
  C 59.01 270.76 59.33 270.13 59.27 269.47
  Q 58.29 257.59 59.06 245.89
  Q 59.28 242.48 60.40 240.86
  Q 61.50 239.28 63.28 238.40
  Q 64.85 237.62 66.84 237.78
  Q 72.06 238.20 73.47 242.60
  Q 74.02 244.32 73.85 249.95
  Q 72.57 291.55 89.07 329.34
  C 89.29 329.85 89.82 330.14 90.37 330.06
  Q 125.23 324.82 158.90 315.81
  Q 266.11 287.11 365.91 238.64
  Q 398.92 222.61 429.48 203.03
  C 429.93 202.74 430.13 202.18 429.97 201.67
  Q 416.90 160.66 387.56 129.93
  C 387.15 129.50 386.51 129.38 385.98 129.64
  Q 360.56 141.78 335.13 133.79
  Q 325.64 130.81 317.19 125.15
  Q 292.15 108.40 287.37 77.04
  C 287.32 76.69 287.04 76.42 286.69 76.36
  Q 245.05 69.65 205.55 80.79
  Q 195.99 83.48 186.66 87.35
  Q 147.43 103.63 119.75 135.00
  Q 90.16 168.53 79.31 211.06
  Q 78.71 213.43 78.18 215.02
  Q 77.46 217.17 76.10 218.48
  Q 72.99 221.48 68.95 220.18
  Q 65.90 219.20 64.55 216.64
  Q 63.12 213.94 63.98 210.49
  Q 80.03 145.79 130.56 103.81
  Q 161.82 77.85 202.08 66.38
  Q 243.65 54.54 286.46 61.19
  C 286.84 61.25 287.20 60.99 287.26 60.60
  Q 289.25 47.43 294.85 36.59
  Q 299.34 27.88 306.61 20.52
  Q 324.69 2.20 351.81 0.00
  Z
  M 408.72 68.50
  C 408.72 39.00 384.81 15.09 355.31 15.09
  C 325.81 15.09 301.90 39.00 301.90 68.50
  C 301.90 98.00 325.81 121.91 355.31 121.91
  C 384.81 121.91 408.72 98.00 408.72 68.50
  Z
  M 458.30 180.85
  Q 459.20 179.98 457.96 180.00
  L 439.08 180.29
  C 438.62 180.29 438.31 180.78 438.48 181.23
  L 442.94 192.83
  C 443.06 193.13 443.42 193.24 443.67 193.06
  Q 451.41 187.48 458.30 180.85
  Z
  M 73.67 331.17
  L 69.14 319.41
  C 69.02 319.10 68.64 318.98 68.40 319.19
  L 53.83 331.52
  Q 52.62 332.55 54.22 332.50
  L 73.19 331.95
  C 73.57 331.94 73.81 331.54 73.67 331.17
  Z"
/>
<path fill="#fff" d="
  M 93.19 512.00
  Q 91.44 512.00 89.69 512.00
  Q 72.06 510.79 59.82 499.79
  Q 52.29 493.02 48.08 483.78
  Q 41.76 469.92 45.00 454.50
  Q 47.70 441.64 56.64 432.23
  Q 63.63 424.88 72.92 420.87
  Q 83.64 416.24 95.36 417.27
  Q 105.26 418.13 114.32 423.10
  Q 130.72 432.10 136.49 450.02
  Q 139.61 459.69 138.52 469.74
  Q 136.23 490.80 118.31 503.56
  Q 107.61 511.19 93.19 512.00
  Z
  M 123.85 464.50
  C 123.85 446.59 109.33 432.07 91.42 432.07
  C 73.51 432.07 58.99 446.59 58.99 464.50
  C 58.99 482.41 73.51 496.93 91.42 496.93
  C 109.33 496.93 123.85 482.41 123.85 464.50
  Z"
/>
</svg>
